<?xml version="1.0" encoding="utf-8"?>
<!-- Generator: Adobe Illustrator 16.0.0, SVG Export Plug-In . SVG Version: 6.00 Build 0)  -->
<!DOCTYPE svg PUBLIC "-//W3C//DTD SVG 1.1 Basic//EN" "http://www.w3.org/Graphics/SVG/1.1/DTD/svg11-basic.dtd">
<svg version="1.1" baseProfile="basic" id="Ebene_1"
	 xmlns="http://www.w3.org/2000/svg" xmlns:xlink="http://www.w3.org/1999/xlink" x="0px" y="0px" width="158.677px"
	 height="52.362px" viewBox="0 0 158.677 52.362" xml:space="preserve">
<path fill="#010202" d="M127.632,35.796l-8.451,4.627l2.396,1.455c-2.722,3.74-6.812,6.124-11.379,6.65V28.832
	c3.397-0.863,5.918-3.947,5.918-7.608c0-4.329-3.521-7.852-7.849-7.852c-4.33,0-7.853,3.523-7.853,7.852
	c0,3.661,2.521,6.746,5.92,7.608v19.694c-4.569-0.549-8.756-3.008-11.458-6.757l2.431-1.45l-8.413-4.692l0.141,9.631l2.508-1.499
	c3.78,5.427,10.065,8.75,16.724,8.75c6.694,0,12.811-3.197,16.627-8.616l2.52,1.535L127.632,35.796z M102.292,21.609
	c0-3.494,2.649-6.337,5.907-6.337c3.256,0,5.905,2.843,5.905,6.337s-2.649,6.334-5.905,6.334
	C104.941,27.944,102.292,25.104,102.292,21.609z"/>
<g>
	<path fill="#010202" d="M21.281,22.182H6.106c0.106,1.775,0.634,3.16,1.582,4.154c0.947,0.994,2.208,1.491,3.784,1.491
		c1.401,0,2.569-0.293,3.503-0.881c0.934-0.587,1.748-1.535,2.442-2.843l3.664,2.042c-1.068,1.909-2.389,3.33-3.964,4.264
		c-1.575,0.934-3.423,1.401-5.545,1.401c-3.043,0-5.465-0.927-7.267-2.783c-1.802-1.855-2.703-4.331-2.703-7.427
		c0-2.976,0.931-5.422,2.793-7.337c1.861-1.915,4.254-2.873,7.177-2.873c3.056,0,5.438,0.875,7.147,2.623
		c1.708,1.749,2.562,4.198,2.562,7.347V22.182z M16.776,19.259c-0.174-1.361-0.694-2.399-1.562-3.113
		c-0.868-0.713-2.056-1.071-3.563-1.071c-1.428,0-2.576,0.347-3.443,1.041c-0.868,0.694-1.475,1.742-1.822,3.143H16.776z"/>
	<path fill="#010202" d="M24.16,31.03V0h4.344v31.03H24.16z"/>
	<path fill="#010202" d="M37.21,0v15.155c0.507-1.201,1.318-2.128,2.432-2.783c1.114-0.654,2.446-0.981,3.994-0.981
		c2.522,0,4.567,0.931,6.136,2.792c1.568,1.862,2.353,4.308,2.353,7.337c0,3.19-0.771,5.703-2.312,7.538
		c-1.541,1.835-3.653,2.752-6.336,2.752c-1.335,0-2.52-0.267-3.554-0.801s-1.938-1.348-2.712-2.442v2.462h-4.344V0H37.21z
		 M37.07,21.481c0,1.936,0.497,3.497,1.491,4.685c0.994,1.188,2.279,1.782,3.854,1.782c1.642,0,2.913-0.547,3.814-1.642
		c0.9-1.094,1.351-2.649,1.351-4.665c0-2.002-0.47-3.566-1.412-4.695c-0.94-1.127-2.232-1.691-3.874-1.691s-2.923,0.547-3.844,1.642
		C37.53,17.991,37.07,19.519,37.07,21.481z"/>
	<path fill="#010202" d="M72.741,29.849c0,3.71-0.741,6.323-2.222,7.837s-3.978,2.272-7.487,2.272c-2.616,0-4.705-0.551-6.266-1.651
		c-1.562-1.102-2.356-2.566-2.382-4.395l4.665-0.02c0.066,0.814,0.447,1.435,1.141,1.862c0.694,0.427,1.668,0.641,2.923,0.641
		c1.855,0,3.189-0.407,4.004-1.221c0.814-0.814,1.228-2.176,1.241-4.084l0.04-2.522c-0.774,1.095-1.679,1.909-2.712,2.442
		c-1.035,0.534-2.219,0.801-3.554,0.801c-2.683,0-4.795-0.917-6.336-2.752c-1.542-1.835-2.312-4.348-2.312-7.538
		c0-3.029,0.787-5.475,2.362-7.337c1.575-1.861,3.63-2.792,6.166-2.792c1.548,0,2.873,0.324,3.974,0.971
		c1.102,0.647,1.905,1.578,2.413,2.792v-3.103h4.344V29.849z M68.517,21.481c0-1.962-0.458-3.49-1.372-4.584
		c-0.914-1.094-2.192-1.642-3.833-1.642s-2.933,0.564-3.874,1.691c-0.941,1.128-1.412,2.693-1.412,4.695
		c0,2.016,0.454,3.57,1.361,4.665c0.907,1.095,2.188,1.642,3.844,1.642c1.562,0,2.833-0.594,3.814-1.782
		C68.026,24.978,68.517,23.417,68.517,21.481z"/>
	<path fill="#010202" d="M75.501,21.561c0-1.388,0.263-2.699,0.791-3.934c0.527-1.234,1.284-2.332,2.272-3.293
		c0.974-0.947,2.095-1.675,3.363-2.182c1.268-0.507,2.596-0.761,3.984-0.761c1.428,0,2.772,0.254,4.034,0.761
		c1.261,0.507,2.392,1.255,3.393,2.242c1.001,0.975,1.762,2.076,2.282,3.303c0.521,1.228,0.781,2.516,0.781,3.864
		c0,1.401-0.257,2.716-0.771,3.944c-0.514,1.228-1.265,2.316-2.252,3.263c-1.041,1.001-2.196,1.759-3.463,2.272
		c-1.268,0.514-2.603,0.771-4.004,0.771c-1.375,0-2.696-0.257-3.964-0.771c-1.268-0.513-2.396-1.257-3.383-2.232
		c-1.001-0.987-1.762-2.095-2.282-3.323C75.761,24.257,75.501,22.949,75.501,21.561z M91.817,21.601
		c0-1.762-0.567-3.253-1.702-4.474c-1.135-1.222-2.522-1.832-4.164-1.832c-1.628,0-3.013,0.61-4.154,1.832
		c-1.141,1.221-1.711,2.712-1.711,4.474s0.571,3.253,1.711,4.474c1.142,1.222,2.526,1.832,4.154,1.832
		c1.628,0,3.013-0.61,4.154-1.832C91.246,24.854,91.817,23.363,91.817,21.601z"/>
	<path fill="#010202" d="M97.759,21.561c0-1.388,0.263-2.699,0.791-3.934c0.527-1.234,1.285-2.332,2.271-3.293
		c0.975-0.947,2.096-1.675,3.363-2.182c1.27-0.507,2.596-0.761,3.984-0.761c1.428,0,2.773,0.254,4.035,0.761
		c1.26,0.507,2.391,1.255,3.393,2.242c1,0.975,1.762,2.076,2.281,3.303c0.521,1.228,0.781,2.516,0.781,3.864
		c0,1.401-0.256,2.716-0.77,3.944c-0.516,1.228-1.266,2.316-2.254,3.263c-1.041,1.001-2.195,1.759-3.463,2.272
		c-1.268,0.514-2.602,0.771-4.004,0.771c-1.375,0-2.695-0.257-3.963-0.771c-1.27-0.513-2.396-1.257-3.385-2.232
		c-1-0.987-1.762-2.095-2.281-3.323C98.02,24.257,97.759,22.949,97.759,21.561z M114.075,21.601c0-1.762-0.568-3.253-1.701-4.474
		c-1.135-1.222-2.523-1.832-4.164-1.832c-1.629,0-3.014,0.61-4.154,1.832c-1.141,1.221-1.713,2.712-1.713,4.474
		s0.572,3.253,1.713,4.474c1.141,1.222,2.525,1.832,4.154,1.832c1.627,0,3.012-0.61,4.154-1.832
		C113.505,24.854,114.075,23.363,114.075,21.601z"/>
	<path fill="#010202" d="M134.932,0h4.345v31.03h-4.345v-2.462c-0.773,1.095-1.678,1.909-2.712,2.442
		c-1.035,0.534-2.22,0.801-3.554,0.801c-2.683,0-4.795-0.917-6.336-2.752c-1.542-1.835-2.312-4.348-2.312-7.538
		c0-3.029,0.787-5.475,2.362-7.337c1.574-1.861,3.63-2.792,6.166-2.792c1.548,0,2.873,0.324,3.974,0.971
		c1.102,0.647,1.905,1.578,2.412,2.792V0z M135.053,21.481c0-1.962-0.458-3.49-1.372-4.584c-0.914-1.094-2.192-1.642-3.833-1.642
		c-1.643,0-2.934,0.564-3.874,1.691c-0.941,1.128-1.411,2.693-1.411,4.695c0,2.016,0.453,3.57,1.361,4.665
		c0.907,1.095,2.188,1.642,3.844,1.642c1.574,0,2.849-0.591,3.823-1.771C134.564,24.994,135.053,23.43,135.053,21.481z"/>
	<path fill="#010202" d="M141.255,27.587l3.604-1.962c0.268,0.948,0.762,1.668,1.482,2.162c0.721,0.494,1.647,0.741,2.782,0.741
		c0.974,0,1.738-0.223,2.292-0.67s0.831-1.058,0.831-1.832c0-1.027-0.988-1.908-2.963-2.643c-0.668-0.24-1.181-0.44-1.542-0.601
		c-2.028-0.841-3.446-1.695-4.254-2.562c-0.808-0.867-1.211-1.922-1.211-3.163c0-1.695,0.664-3.069,1.992-4.124
		c1.327-1.054,3.086-1.582,5.275-1.582c1.468,0,2.726,0.27,3.773,0.811c1.047,0.54,1.812,1.311,2.292,2.312l-3.083,2.122
		c-0.228-0.601-0.624-1.078-1.191-1.431s-1.225-0.531-1.972-0.531c-0.828,0-1.491,0.197-1.992,0.59
		c-0.5,0.394-0.751,0.918-0.751,1.572c0,0.988,1.121,1.889,3.363,2.703c0.708,0.254,1.255,0.46,1.643,0.621
		c1.748,0.694,2.999,1.479,3.753,2.352c0.754,0.875,1.132,1.966,1.132,3.273c0,1.896-0.688,3.38-2.062,4.454
		c-1.375,1.074-3.271,1.612-5.686,1.612c-1.855,0-3.396-0.347-4.625-1.041C142.91,30.076,141.949,29.015,141.255,27.587z"/>
</g>
<g>
	<path d="M3.37,49.844v-8.266h0.751v8.266H3.37z"/>
	<path d="M6.08,49.844v-5.008H6.74v0.773c0.204-0.32,0.453-0.56,0.749-0.72c0.295-0.16,0.635-0.24,1.019-0.24
		c0.568,0,1.011,0.158,1.327,0.475c0.316,0.316,0.475,0.756,0.475,1.321v3.399H9.603v-3.088c0-0.501-0.104-0.873-0.313-1.115
		c-0.208-0.243-0.532-0.364-0.968-0.364c-0.531,0-0.921,0.157-1.171,0.471c-0.25,0.314-0.375,0.809-0.375,1.482v2.614H6.08z"/>
	<path d="M12.251,45.428h-0.92v-0.593h0.92V42.78h0.683v2.055h1.005v0.593h-1.005v4.416h-0.683V45.428z"/>
	<path d="M19.275,47.359h-3.98c0.019,0.647,0.181,1.156,0.485,1.524c0.305,0.369,0.713,0.553,1.225,0.553
		c0.369,0,0.693-0.1,0.971-0.299c0.279-0.2,0.51-0.501,0.695-0.904l0.638,0.35c-0.256,0.508-0.569,0.882-0.94,1.121
		c-0.371,0.239-0.825,0.358-1.364,0.358c-0.734,0-1.328-0.246-1.781-0.737s-0.68-1.136-0.68-1.934c0-0.82,0.225-1.483,0.674-1.987
		c0.45-0.504,1.038-0.757,1.765-0.757c0.693,0,1.248,0.232,1.666,0.697c0.418,0.465,0.627,1.085,0.627,1.861V47.359z M18.451,46.767
		c-0.034-0.459-0.187-0.815-0.458-1.067c-0.271-0.252-0.638-0.378-1.101-0.378c-0.421,0-0.774,0.132-1.059,0.396
		s-0.449,0.614-0.494,1.05H18.451z"/>
	<path d="M21.416,45.84c0.256-0.433,0.507-0.74,0.754-0.92c0.246-0.181,0.533-0.271,0.861-0.271c0.098,0,0.197,0.01,0.296,0.028
		c0.1,0.019,0.199,0.045,0.296,0.079l-0.226,0.655c-0.076-0.022-0.154-0.041-0.234-0.056c-0.081-0.015-0.159-0.022-0.234-0.022
		c-0.418,0-0.774,0.195-1.07,0.587c-0.296,0.392-0.443,0.879-0.443,1.462v2.462h-0.695v-5.008h0.695V45.84z"/>
	<path d="M24.362,49.844v-5.008h0.661v0.773c0.204-0.32,0.453-0.56,0.749-0.72c0.295-0.16,0.635-0.24,1.019-0.24
		c0.568,0,1.011,0.158,1.327,0.475c0.316,0.316,0.475,0.756,0.475,1.321v3.399h-0.706v-3.088c0-0.501-0.104-0.873-0.313-1.115
		c-0.208-0.243-0.532-0.364-0.968-0.364c-0.531,0-0.921,0.157-1.171,0.471c-0.25,0.314-0.375,0.809-0.375,1.482v2.614H24.362z"/>
	<path d="M34.69,47.359h-3.98c0.019,0.647,0.181,1.156,0.485,1.524c0.305,0.369,0.713,0.553,1.225,0.553
		c0.369,0,0.693-0.1,0.971-0.299c0.279-0.2,0.51-0.501,0.695-0.904l0.638,0.35c-0.256,0.508-0.569,0.882-0.94,1.121
		c-0.371,0.239-0.825,0.358-1.364,0.358c-0.734,0-1.328-0.246-1.781-0.737s-0.68-1.136-0.68-1.934c0-0.82,0.225-1.483,0.674-1.987
		c0.45-0.504,1.038-0.757,1.765-0.757c0.693,0,1.248,0.232,1.666,0.697c0.418,0.465,0.627,1.085,0.627,1.861V47.359z M33.866,46.767
		c-0.034-0.459-0.187-0.815-0.458-1.067c-0.271-0.252-0.638-0.378-1.101-0.378c-0.421,0-0.774,0.132-1.059,0.396
		s-0.449,0.614-0.494,1.05H33.866z"/>
	<path d="M36.282,45.428h-0.92v-0.593h0.92V42.78h0.683v2.055h1.005v0.593h-1.005v4.416h-0.683V45.428z"/>
	<path d="M42.702,49.844v-0.915c-0.166,0.369-0.398,0.65-0.697,0.844c-0.299,0.194-0.652,0.291-1.059,0.291
		c-0.719,0-1.297-0.247-1.736-0.74c-0.439-0.493-0.658-1.144-0.658-1.954c0-0.802,0.217-1.456,0.649-1.962
		c0.433-0.506,0.992-0.76,1.677-0.76c0.425,0,0.793,0.093,1.104,0.28c0.311,0.186,0.551,0.46,0.72,0.821v-0.915h0.694v5.008H42.702z
		 M39.326,47.393c0,0.647,0.146,1.146,0.438,1.497c0.292,0.35,0.708,0.525,1.25,0.525c0.527,0,0.942-0.191,1.245-0.573
		c0.303-0.382,0.455-0.908,0.455-1.578c0-0.613-0.151-1.096-0.452-1.448c-0.301-0.352-0.713-0.528-1.237-0.528
		c-0.523,0-0.937,0.188-1.242,0.562C39.478,46.224,39.326,46.738,39.326,47.393z"/>
	<path d="M49.664,44.835v4.139c0,0.659-0.018,1.161-0.054,1.508c-0.036,0.346-0.095,0.604-0.178,0.773
		c-0.173,0.373-0.438,0.65-0.796,0.833c-0.358,0.182-0.81,0.273-1.355,0.273c-0.666,0-1.185-0.129-1.556-0.387
		c-0.371-0.258-0.596-0.648-0.674-1.171h0.869c0.057,0.309,0.205,0.542,0.443,0.7c0.239,0.158,0.564,0.237,0.974,0.237
		c0.309,0,0.586-0.054,0.833-0.164c0.246-0.109,0.432-0.26,0.556-0.452c0.083-0.124,0.142-0.268,0.178-0.432
		c0.036-0.164,0.054-0.417,0.054-0.759v-0.265v-0.751c-0.154,0.357-0.391,0.638-0.709,0.841c-0.318,0.203-0.682,0.305-1.092,0.305
		c-0.704,0-1.266-0.245-1.686-0.734s-0.629-1.146-0.629-1.971c0-0.817,0.214-1.473,0.644-1.968s0.998-0.743,1.705-0.743
		c0.396,0,0.754,0.103,1.076,0.308c0.322,0.205,0.552,0.477,0.692,0.816v-0.938H49.664z M47.27,45.287
		c-0.52,0-0.929,0.186-1.228,0.556s-0.449,0.88-0.449,1.527c0,0.644,0.142,1.146,0.426,1.505s0.678,0.539,1.183,0.539
		c0.535,0,0.963-0.19,1.285-0.57c0.322-0.38,0.483-0.892,0.483-1.536c0-0.632-0.151-1.127-0.452-1.485
		C48.217,45.466,47.801,45.287,47.27,45.287z"/>
	<path d="M55.818,47.359h-3.98c0.019,0.647,0.181,1.156,0.485,1.524c0.305,0.369,0.713,0.553,1.225,0.553
		c0.369,0,0.693-0.1,0.971-0.299c0.279-0.2,0.51-0.501,0.695-0.904l0.638,0.35c-0.256,0.508-0.569,0.882-0.94,1.121
		c-0.371,0.239-0.825,0.358-1.364,0.358c-0.734,0-1.328-0.246-1.781-0.737s-0.68-1.136-0.68-1.934c0-0.82,0.225-1.483,0.674-1.987
		c0.45-0.504,1.038-0.757,1.765-0.757c0.693,0,1.248,0.232,1.666,0.697c0.418,0.465,0.627,1.085,0.627,1.861V47.359z M54.994,46.767
		c-0.034-0.459-0.187-0.815-0.458-1.067c-0.271-0.252-0.638-0.378-1.101-0.378c-0.421,0-0.774,0.132-1.059,0.396
		s-0.449,0.614-0.494,1.05H54.994z"/>
	<path d="M57.264,49.844v-5.008h0.661v0.773c0.204-0.32,0.453-0.56,0.749-0.72c0.295-0.16,0.635-0.24,1.019-0.24
		c0.568,0,1.011,0.158,1.327,0.475c0.316,0.316,0.475,0.756,0.475,1.321v3.399h-0.706v-3.088c0-0.501-0.104-0.873-0.313-1.115
		c-0.208-0.243-0.532-0.364-0.968-0.364c-0.531,0-0.921,0.157-1.171,0.471c-0.25,0.314-0.375,0.809-0.375,1.482v2.614H57.264z"/>
	<path d="M63.436,45.428h-0.92v-0.593h0.92V42.78h0.683v2.055h1.005v0.593h-1.005v4.416h-0.683V45.428z"/>
	<path d="M66.852,44.835v2.501c0,0.76,0.108,1.297,0.325,1.609c0.216,0.312,0.583,0.469,1.098,0.469
		c0.512,0,0.879-0.158,1.101-0.474c0.222-0.316,0.333-0.851,0.333-1.604v-2.501h0.689v2.857c0,0.779-0.179,1.369-0.537,1.77
		c-0.357,0.401-0.883,0.602-1.575,0.602c-0.696,0-1.225-0.201-1.586-0.602s-0.542-0.991-0.542-1.77v-2.857H66.852z"/>
	<path d="M72.944,45.84c0.256-0.433,0.507-0.74,0.754-0.92c0.246-0.181,0.533-0.271,0.861-0.271c0.098,0,0.197,0.01,0.296,0.028
		c0.1,0.019,0.199,0.045,0.296,0.079l-0.226,0.655c-0.076-0.022-0.154-0.041-0.234-0.056c-0.081-0.015-0.159-0.022-0.234-0.022
		c-0.418,0-0.774,0.195-1.07,0.587c-0.296,0.392-0.443,0.879-0.443,1.462v2.462h-0.695v-5.008h0.695V45.84z"/>
</g>
</svg>
