<?xml version="1.0" encoding="utf-8"?>
<!-- Generator: Adobe Illustrator 23.1.1, SVG Export Plug-In . SVG Version: 6.00 Build 0)  -->
<svg version="1.1" id="Ebene_1" xmlns="http://www.w3.org/2000/svg" xmlns:xlink="http://www.w3.org/1999/xlink" x="0px" y="0px"
	 viewBox="0 0 800 574" style="enable-background:new 0 0 800 574;" xml:space="preserve">
<style type="text/css">
	.st0{fill:none;stroke:#404040;stroke-width:4;stroke-miterlimit:10;}
	.st1{fill:#A3BE8C;stroke:#404040;stroke-width:4;stroke-miterlimit:10;}
	.st2{fill:#B48EAD;stroke:#404040;stroke-width:4;stroke-miterlimit:10;}
	.st3{fill:none;stroke:#CCCCCC;stroke-width:4;stroke-linecap:round;stroke-linejoin:round;stroke-dasharray:0,14.3051;}
	.st4{fill:none;stroke:#CCCCCC;stroke-width:4;stroke-linecap:round;stroke-linejoin:round;}
	.st5{fill:none;stroke:#CCCCCC;stroke-width:4;stroke-linecap:round;stroke-linejoin:round;stroke-dasharray:0,14.1689;}
	.st6{fill:none;stroke:#CCCCCC;stroke-width:4;stroke-linecap:round;stroke-linejoin:round;stroke-dasharray:0,13.9788;}
	.st7{fill:none;stroke:#CCCCCC;stroke-width:4;stroke-linecap:round;stroke-linejoin:round;stroke-dasharray:0,14.7877;}
	.st8{fill:none;stroke:#CCCCCC;stroke-width:4;stroke-linecap:round;stroke-linejoin:round;stroke-dasharray:0,14.9632;}
	.st9{fill:#8FBCBB;stroke:#404040;stroke-width:4;stroke-miterlimit:10;}
	.st10{fill:#88C0D0;stroke:#404040;stroke-width:4;stroke-linecap:round;stroke-linejoin:round;stroke-miterlimit:10;}
	.st11{fill:none;stroke:#404040;stroke-width:4;stroke-linecap:round;stroke-linejoin:round;stroke-miterlimit:10;}
	.st12{fill:none;stroke:#CCCCCC;stroke-width:4;stroke-linecap:round;stroke-linejoin:round;stroke-dasharray:0,12.543;}
	.st13{fill:none;stroke:#CCCCCC;stroke-width:4;stroke-linecap:round;stroke-linejoin:round;stroke-dasharray:0,13.6844;}
	.st14{fill:none;stroke:#CCCCCC;stroke-width:4;stroke-linecap:round;stroke-linejoin:round;stroke-dasharray:0,13.7717;}
	.st15{fill:none;stroke:#CCCCCC;stroke-width:4;stroke-linecap:round;stroke-linejoin:round;stroke-dasharray:0,13.6492;}
	.st16{fill:none;stroke:#CCCCCC;stroke-width:4;stroke-linecap:round;stroke-linejoin:round;stroke-dasharray:0,13.907;}
	.st17{fill:#404040;}
	.st18{fill:#B48EAD;stroke:#404040;stroke-width:4;stroke-linecap:round;stroke-linejoin:round;stroke-miterlimit:10;}
	.st19{fill:#BF616A;stroke:#404040;stroke-width:4;stroke-linecap:round;stroke-linejoin:round;stroke-miterlimit:10;}
	.st20{fill:#8FBCBB;stroke:#404040;stroke-width:4;stroke-linecap:round;stroke-linejoin:round;stroke-miterlimit:10;}
	.st21{fill:#A3BE8C;stroke:#404040;stroke-width:4;stroke-linecap:round;stroke-linejoin:round;stroke-miterlimit:10;}
	.st22{fill:#D08770;stroke:#404040;stroke-width:4;stroke-linecap:round;stroke-linejoin:round;stroke-miterlimit:10;}
	.st23{fill:#D08770;stroke:#404040;stroke-width:4;stroke-miterlimit:10;}
	.st24{font-family:'FiraCode-Medium';}
	.st25{font-size:14px;}
</style>
<path class="st0" d="M424.4,459.9c0-17,13.8-30.8,30.8-30.8"/>
<path class="st0" d="M254.1,459.9c0-17-13.8-30.8-30.8-30.8 M164.5,552.1h213.9"/>
<circle class="st1" cx="315.8" cy="552.1" r="15.8"/>
<circle class="st1" cx="362.7" cy="552.1" r="15.8"/>
<circle class="st1" cx="242.5" cy="552.1" r="15.8"/>
<path class="st0" d="M776.2,429.1H179.9"/>
<circle class="st2" cx="485.2" cy="429.1" r="15.8"/>
<circle class="st2" cx="315.8" cy="429.1" r="15.8"/>
<circle class="st2" cx="776.2" cy="429.1" r="15.8"/>
<path class="st0" d="M254.1,459.9c0,17,13.8,30.8,30.8,30.8h107.9 M84.9,275c0,17,13.8,30.8,30.8,30.8H133"/>
<circle class="st1" cx="315.8" cy="490.6" r="15.8"/>
<circle class="st1" cx="362.7" cy="490.6" r="15.8"/>
<path class="st0" d="M392.8,490.6h0.9c17,0,30.8-13.8,30.8-30.8"/>
<path class="st3" d="M57.2,306.1H21.5"/>
<path class="st4" d="M776.3,306.1"/>
<path class="st5" d="M762.1,306.1H244.9"/>
<path class="st4" d="M545.5,367.6"/>
<path class="st6" d="M531.5,367.6H21.3"/>
<path class="st4" d="M776.3,367.6"/>
<path class="st7" d="M761.5,367.6H647.9"/>
<path class="st4" d="M776.2,244.6"/>
<path class="st8" d="M761.3,244.6H679"/>
<path class="st0" d="M84.9,275.4c0-17-13.8-30.8-30.8-30.8 M211.7,275c0,17-13.8,30.8-30.8,30.8h-48 M211.7,275.4
	c0-17,13.8-30.8,30.8-30.8 M273.2,429.1c-17,0-30.8-13.8-30.8-30.8v-61.8 M242.4,336.5c0-17-13.8-30.8-30.8-30.8"/>
<circle class="st1" cx="148.7" cy="552.1" r="15.8"/>
<path class="st0" d="M645,244.6H39.2"/>
<ellipse transform="matrix(0.9999 -1.514629e-02 1.514629e-02 0.9999 -3.7021 0.384)" class="st9" cx="23.5" cy="244.6" rx="15.8" ry="15.8"/>
<circle class="st9" cx="315.8" cy="244.6" r="15.8"/>
<circle class="st9" cx="645" cy="244.6" r="15.8"/>
<path class="st10" d="M15,139.1h112.5v37.5H15V139.1z"/>
<path class="st11" d="M70.3,210.7v-17.6 M78.5,204.2l-8.2,8.2l-8.1-8.2"/>
<path class="st11" d="M315.8,210.7v-17.6 M324,204.2l-8.2,8.2l-8.1-8.2"/>
<path class="st11" d="M645,210.7v-17.6 M653.2,204.2l-8.2,8.2l-8.1-8.2"/>
<path class="st12" d="M64.5,429.1H20.6"/>
<path class="st4" d="M260.6,490.6"/>
<path class="st13" d="M139,490.6H21.2"/>
<path class="st4" d="M776.3,490.6"/>
<path class="st14" d="M552.2,490.6H425.1"/>
<path class="st4" d="M123.5,552.1"/>
<path class="st15" d="M109.9,552.1H21.1"/>
<path class="st4" d="M776.3,552.1"/>
<path class="st16" d="M762.3,552.1H393.8"/>
<path class="st17" d="M437.7,33.8h-1.6v4.3h-1.5V27.6h4c2,0,3.3,1.4,3.3,3.2c0,1.5-1,2.7-2.6,3l2.5,4.5h-1.7L437.7,33.8L437.7,33.8z
	 M438.4,32.5c1.2,0,2-0.7,2-1.8s-0.8-1.8-2-1.8h-2.2v3.6C436.2,32.5,438.4,32.5,438.4,32.5z M450.5,36.1c-0.4,1.3-1.6,2.3-3.2,2.3
	c-1.9,0-3.6-1.4-3.6-3.9c0-2.3,1.6-3.8,3.5-3.8c2.2,0,3.5,1.5,3.5,3.8V35h-5.4c0,1.3,1,2.2,2.2,2.2s1.8-0.6,2-1.5L450.5,36.1z
	 M449.1,33.8c0-1-0.7-1.8-2-1.8c-1.2,0-1.9,0.9-2,1.8H449.1z M453.1,38.2V27.3h1.4v10.9H453.1z M464,36.1c-0.4,1.3-1.6,2.3-3.2,2.3
	c-1.9,0-3.6-1.4-3.6-3.9c0-2.3,1.6-3.8,3.5-3.8c2.2,0,3.5,1.5,3.5,3.8V35h-5.4c0,1.3,1,2.2,2.2,2.2s1.8-0.6,2-1.5L464,36.1z
	 M462.6,33.8c0-1-0.7-1.8-2-1.8c-1.2,0-1.9,0.9-2,1.8H462.6z M468.3,34.1l2-0.3c0.4-0.1,0.6-0.3,0.6-0.5c0-0.7-0.5-1.3-1.6-1.3
	c-1,0-1.5,0.6-1.6,1.5l-1.4-0.3c0.2-1.4,1.4-2.3,3-2.3c2.2,0,3,1.2,3,2.6V37c0,0.6,0.1,1,0.1,1.2h-1.5c0-0.2-0.1-0.5-0.1-1
	c-0.3,0.5-1,1.2-2.3,1.2c-1.5,0-2.4-1-2.4-2.2S467.1,34.2,468.3,34.1L468.3,34.1z M470.8,35.1v-0.3l-2.2,0.3c-0.6,0.1-1,0.4-1,1.1
	c0,0.5,0.5,1,1.2,1C469.9,37.2,470.8,36.7,470.8,35.1z M475.8,35.9c0.1,0.8,0.7,1.3,1.7,1.3c0.8,0,1.2-0.5,1.2-1
	c0-0.4-0.3-0.8-0.9-0.9l-1.2-0.3c-1.1-0.2-1.8-1-1.8-2c0-1.2,1.2-2.3,2.6-2.3c2,0,2.6,1.3,2.7,1.9l-1.2,0.5
	c-0.1-0.4-0.4-1.2-1.5-1.2c-0.7,0-1.2,0.5-1.2,1c0,0.4,0.3,0.8,0.8,0.9l1.2,0.3c1.3,0.3,2,1.1,2,2.1s-0.9,2.2-2.6,2.2
	c-2,0-2.8-1.3-2.9-2.1L475.8,35.9L475.8,35.9z M488.9,36.1c-0.4,1.3-1.6,2.3-3.2,2.3c-1.9,0-3.6-1.4-3.6-3.9c0-2.3,1.6-3.8,3.5-3.8
	c2.2,0,3.5,1.5,3.5,3.8V35h-5.4c0,1.3,1,2.2,2.2,2.2s1.8-0.6,2-1.5L488.9,36.1z M487.5,33.8c0-1-0.7-1.8-2-1.8c-1.2,0-1.9,0.9-2,1.8
	H487.5z"/>
<path class="st18" d="M417.6,6.8h96.2v50h-96.2V6.8z"/>
<path class="st19" d="M277.8,5.2H374v50h-96.2V5.2z"/>
<path class="st20" d="M140,5.2h96.2v50H140V5.2z"/>
<path class="st21" d="M551.5,7.9h96.2v50h-96.2V7.9z"/>
<path class="st22" d="M671.3,8h96.2v50h-96.2V8z"/>
<path class="st0" d="M84.9,275v123.4c0,17,13.8,30.8,30.8,30.8h95.7"/>
<circle class="st2" cx="195.6" cy="429.1" r="15.7"/>
<circle class="st2" cx="148.7" cy="429.1" r="15.8"/>
<circle class="st19" cx="148.7" cy="306.1" r="15.8"/>
<path class="st0" d="M536.5,398.4c0,17-13.8,30.8-30.8,30.8 M568.1,367.6h-0.9c-17,0-30.8,13.8-30.8,30.8 M645.1,336.5
	c0,17.2-7.7,31.1-17.1,31.1h-59.9"/>
<path class="st0" d="M148.7,444.9v91.5 M164.5,305.7h47.2 M645,336.5v-76.1"/>
<path class="st0" d="M711.8,459.9c0-17,13.8-30.8,30.8-30.8"/>
<path class="st0" d="M541.5,459.9c0-17-13.8-30.8-30.8-30.8"/>
<path class="st0" d="M541.5,459.9c0,17,13.8,30.8,30.8,30.8h107.9"/>
<circle class="st23" cx="603.2" cy="490.6" r="15.8"/>
<circle class="st23" cx="650.1" cy="490.6" r="15.8"/>
<path class="st0" d="M680.2,490.6h0.9c17,0,30.8-13.8,30.8-30.8"/>
<text transform="matrix(1 0 0 1 693.5538 39.4082)" class="st24 st25">Bugfix</text>
<text transform="matrix(1 0 0 1 569.3967 38.1079)" class="st24 st25">Feature</text>
<text transform="matrix(1 0 0 1 436.1003 38.158)" class="st24 st25">develop</text>
<path class="st13" d="M256.6,490.6H156"/>
<path class="st14" d="M762.5,490.6h-57.8"/>
<text transform="matrix(1 0 0 1 299.5004 35.971)" class="st24 st25">Hotfix</text>
<text transform="matrix(1 0 0 1 161.5004 35.971)" class="st24 st25">master</text>
<path class="st10" d="M10,6.2h96.2v50H10V6.2z"/>
<text transform="matrix(1 0 0 1 28.5004 35.971)" class="st24 st25">Release</text>
<text transform="matrix(1 0 0 1 28 162.0709)" class="st24 st25">2020-01-06</text>
<path class="st10" d="M237,139.1h158.6v37.5H237V139.1z"/>
<text transform="matrix(1 0 0 1 252 162.0709)" class="st24 st25">2020-01-06-hf.1</text>
<path class="st10" d="M588,139.1h112.5v37.5H588V139.1z"/>
<text transform="matrix(1 0 0 1 601 162.0709)" class="st24 st25">2020-01-20</text>
</svg>
